<svg width="62" height="62" viewBox="0 0 62 62" fill="none" xmlns="http://www.w3.org/2000/svg">
<path d="M23.1422 23.207C22.0658 22.432 21.2801 21.8616 20.4943 21.3018C17.3297 19.0306 14.1436 16.7702 11.0006 14.4668C10.2471 13.9178 9.53668 13.2397 9.00925 12.4862C8.70786 12.0341 8.61099 11.2268 8.8155 10.7532C8.9339 10.4734 9.90265 10.3227 10.3655 10.4841C11.4957 10.8609 12.5936 11.3775 13.627 11.9695C16.8454 13.8317 20.0315 15.7584 23.3575 17.739C23.6589 15.7584 23.9172 13.7886 24.2832 11.8404C24.5631 10.3334 24.9506 8.82648 25.3704 7.35183C25.6395 6.39384 26.2099 5.56502 27.3617 5.72648C28.5565 5.88794 28.944 6.83516 28.9224 7.90078C28.8794 11.0761 28.7718 14.2407 28.7072 17.4161C28.6856 18.1695 28.7072 18.923 28.7072 19.6765C28.8256 19.7841 29.8374 18.88 30.311 18.4171C34.3582 14.456 38.4054 10.5164 42.4957 6.59835C43.0662 6.0494 43.7874 5.58655 44.5193 5.28516C44.9068 5.1237 45.6388 5.2421 45.8971 5.52197C46.1554 5.80183 46.2092 6.53377 46.0263 6.91051C45.6818 7.63169 45.1652 8.28828 44.6162 8.8803C41.0103 12.8414 37.3829 16.781 33.7662 20.7313C33.3679 21.1619 32.9697 21.614 32.3777 22.2706C35.0902 22.0768 37.5336 21.8616 39.977 21.7324C44.8961 21.4848 49.8259 21.2803 54.745 21.065C55.0464 21.0543 55.3693 21.0543 55.6277 21.1081C57.3176 21.4633 57.1669 23.1532 55.8967 23.3685C54.3467 23.6376 52.786 23.9713 51.2145 24.1327C45.5849 24.6925 39.9554 25.1876 34.3259 25.715C34.2075 25.7258 34.0999 25.7688 33.7447 25.8657C35.2947 27.082 36.7263 28.2015 38.1579 29.3102C40.8596 31.4199 43.5936 33.4973 46.2523 35.6501C46.9627 36.2313 47.587 36.9956 48.0391 37.7921C48.5235 38.6317 48.0176 39.3529 47.0919 39.1268C45.9617 38.8362 44.7992 38.3734 43.8412 37.7168C39.1697 34.5306 34.5627 31.2477 29.9342 27.997C29.4176 27.631 28.9009 27.265 28.1474 26.7161C27.986 29.1595 27.8568 31.3553 27.6846 33.5511C27.1679 40.0848 26.6513 46.6185 26.1131 53.1522C26.0485 53.8734 25.9086 54.6053 25.6933 55.2942C25.4027 56.2414 24.7568 56.8657 23.7127 56.7904C22.7332 56.715 22.1627 56.0584 21.9905 55.1327C21.829 54.2501 21.7429 53.3459 21.7537 52.4525C21.8183 46.6185 21.9152 40.7952 22.0013 34.9612C22.012 34.5306 22.0013 34.1109 22.0013 33.3681C21.5061 33.8418 21.1617 34.1539 20.828 34.4876C17.1037 38.2119 13.3794 41.947 9.64432 45.6713C9.22453 46.0911 8.75092 46.5109 8.21272 46.7477C7.84675 46.9091 7.20092 46.8984 6.92106 46.6723C6.6412 46.4463 6.57661 45.8112 6.57661 45.4345C6.58738 44.2504 7.22245 43.723 7.78217 43.0449C11.0759 39.0515 14.4235 35.0904 17.7926 31.1508C19.0089 29.73 20.3329 28.406 21.8936 26.7484C18.9766 27.082 16.4471 27.405 13.9176 27.6418C11.4849 27.8678 9.05231 28.0077 6.6089 28.18C6.35057 28.2015 6.08147 28.1584 5.84467 28.1261C4.60682 27.9754 5.30647 26.6622 5.66168 26.5761C8.10509 25.9734 10.57 25.3921 13.0457 24.94C15.9843 24.4341 22.4749 23.4331 23.1422 23.207Z" fill="white"/>
</svg>
